{
  "accessors": [
    {
      "bufferView": 2,
      "componentType": 5126,
      "count": 745,
      "max": [
        0.849396288394928,
        1.4110172986984253,
        2.313016176223755
      ],
      "min": [
        -0.849396288394928,
        0.24980823695659637,
        -2.2674431800842285
      ],
      "type": "VEC3"
    },
    {
      "bufferView": 2,
      "byteOffset": 8940,
      "componentType": 5126,
      "count": 745,
      "max": [
        0.9999603033065796,
        1.0,
        0.9122315645217896
      ],
      "min": [
        -0.9999603033065796,
        -0.42405614256858826,
        -0.9894234538078308
      ],
      "type": "VEC3"
    },
    {
      "bufferView": 1,
      "componentType": 5126,
      "count": 745,
      "max": [
        0.26547861099243164,
        0.8521599769592285
      ],
      "min": [
        0.0585690401494503,
        0.6134296655654907
      ],
      "type": "VEC2"
    },
    {
      "bufferView": 0,
      "componentType": 5125,
      "count": 2046,
      "type": "SCALAR"
    },
    {
      "bufferView": 2,
      "byteOffset": 17880,
      "componentType": 5126,
      "count": 3213,
      "max": [
        0.8951171636581421,
        1.3724775314331055,
        2.313016176223755
      ],
      "min": [
        -0.8951171636581421,
        0.21176327764987946,
        -2.330569267272949
      ],
      "type": "VEC3"
    },
    {
      "bufferView": 2,
      "byteOffset": 56436,
      "componentType": 5126,
      "count": 3213,
      "max": [
        1.0,
        1.0,
        1.0
      ],
      "min": [
        -1.0,
        -1.0,
        -1.0
      ],
      "type": "VEC3"
    },
    {
      "bufferView": 1,
      "byteOffset": 5960,
      "componentType": 5126,
      "count": 3213,
      "max": [
        0.9310941100120544,
        0.9718286991119385
      ],
      "min": [
        0.04783332720398903,
        0.23797279596328735
      ],
      "type": "VEC2"
    },
    {
      "bufferView": 0,
      "byteOffset": 8184,
      "componentType": 5125,
      "count": 7848,
      "type": "SCALAR"
    },
    {
      "bufferView": 2,
      "byteOffset": 94992,
      "componentType": 5126,
      "count": 4160,
      "max": [
        0.8978715538978577,
        1.4140145778656006,
        2.3160147666931152
      ],
      "min": [
        -0.8978715538978577,
        0.20926417410373688,
        -2.332765817642212
      ],
      "type": "VEC3"
    },
    {
      "bufferView": 2,
      "byteOffset": 144912,
      "componentType": 5126,
      "count": 4160,
      "max": [
        1.0,
        1.0,
        1.0
      ],
      "min": [
        -1.0,
        -1.0,
        -1.0
      ],
      "type": "VEC3"
    },
    {
      "bufferView": 1,
      "byteOffset": 31664,
      "componentType": 5126,
      "count": 4160,
      "max": [
        0.9310941100120544,
        0.9718286991119385
      ],
      "min": [
        0.04783332720398903,
        0.23797279596328735
      ],
      "type": "VEC2"
    },
    {
      "bufferView": 0,
      "byteOffset": 39576,
      "componentType": 5125,
      "count": 10266,
      "type": "SCALAR"
    },
    {
      "bufferView": 2,
      "byteOffset": 194832,
      "componentType": 5126,
      "count": 960,
      "max": [
        0.10249999910593033,
        0.33429527282714844,
        0.33429524302482605
      ],
      "min": [
        -0.10250001400709152,
        -0.33429524302482605,
        -0.33429524302482605
      ],
      "type": "VEC3"
    },
    {
      "bufferView": 2,
      "byteOffset": 206352,
      "componentType": 5126,
      "count": 960,
      "max": [
        1.0,
        1.0,
        1.0
      ],
      "min": [
        -1.0,
        -1.0,
        -1.0
      ],
      "type": "VEC3"
    },
    {
      "bufferView": 1,
      "byteOffset": 64944,
      "componentType": 5126,
      "count": 960,
      "max": [
        0.7020008563995361,
        0.9898306131362915
      ],
      "min": [
        0.05161029472947121,
        0.4806762933731079
      ],
      "type": "VEC2"
    },
    {
      "bufferView": 0,
      "byteOffset": 80640,
      "componentType": 5125,
      "count": 2652,
      "type": "SCALAR"
    },
    {
      "bufferView": 2,
      "byteOffset": 217872,
      "componentType": 5126,
      "count": 1224,
      "max": [
        0.10542090982198715,
        0.337295264005661,
        0.3372952342033386
      ],
      "min": [
        -0.10542092472314835,
        -0.3372952342033386,
        -0.3372952342033386
      ],
      "type": "VEC3"
    },
    {
      "bufferView": 2,
      "byteOffset": 232560,
      "componentType": 5126,
      "count": 1224,
      "max": [
        1.0,
        1.0,
        1.0
      ],
      "min": [
        -1.0,
        -1.0,
        -1.0
      ],
      "type": "VEC3"
    },
    {
      "bufferView": 1,
      "byteOffset": 72624,
      "componentType": 5126,
      "count": 1224,
      "max": [
        0.7020008563995361,
        0.9898306131362915
      ],
      "min": [
        0.05161029472947121,
        0.4806762933731079
      ],
      "type": "VEC2"
    },
    {
      "bufferView": 0,
      "byteOffset": 91248,
      "componentType": 5125,
      "count": 3252,
      "type": "SCALAR"
    },
    {
      "bufferView": 2,
      "byteOffset": 247248,
      "componentType": 5126,
      "count": 960,
      "max": [
        0.10249999910593033,
        0.33429527282714844,
        0.33429524302482605
      ],
      "min": [
        -0.10250001400709152,
        -0.33429524302482605,
        -0.33429524302482605
      ],
      "type": "VEC3"
    },
    {
      "bufferView": 2,
      "byteOffset": 258768,
      "componentType": 5126,
      "count": 960,
      "max": [
        1.0,
        1.0,
        1.0
      ],
      "min": [
        -1.0,
        -1.0,
        -1.0
      ],
      "type": "VEC3"
    },
    {
      "bufferView": 1,
      "byteOffset": 82416,
      "componentType": 5126,
      "count": 960,
      "max": [
        0.7020008563995361,
        0.9898306131362915
      ],
      "min": [
        0.05161029472947121,
        0.4806762933731079
      ],
      "type": "VEC2"
    },
    {
      "bufferView": 0,
      "byteOffset": 104256,
      "componentType": 5125,
      "count": 2652,
      "type": "SCALAR"
    },
    {
      "bufferView": 2,
      "byteOffset": 270288,
      "componentType": 5126,
      "count": 1224,
      "max": [
        0.10542090982198715,
        0.337295264005661,
        0.3372952342033386
      ],
      "min": [
        -0.10542092472314835,
        -0.3372952342033386,
        -0.3372952342033386
      ],
      "type": "VEC3"
    },
    {
      "bufferView": 2,
      "byteOffset": 284976,
      "componentType": 5126,
      "count": 1224,
      "max": [
        1.0,
        1.0,
        1.0
      ],
      "min": [
        -1.0,
        -1.0,
        -1.0
      ],
      "type": "VEC3"
    },
    {
      "bufferView": 1,
      "byteOffset": 90096,
      "componentType": 5126,
      "count": 1224,
      "max": [
        0.7020008563995361,
        0.9898306131362915
      ],
      "min": [
        0.05161029472947121,
        0.4806762933731079
      ],
      "type": "VEC2"
    },
    {
      "bufferView": 0,
      "byteOffset": 114864,
      "componentType": 5125,
      "count": 3252,
      "type": "SCALAR"
    },
    {
      "bufferView": 2,
      "byteOffset": 299664,
      "componentType": 5126,
      "count": 960,
      "max": [
        0.10249999910593033,
        0.33429527282714844,
        0.33429524302482605
      ],
      "min": [
        -0.10250001400709152,
        -0.33429524302482605,
        -0.33429524302482605
      ],
      "type": "VEC3"
    },
    {
      "bufferView": 2,
      "byteOffset": 311184,
      "componentType": 5126,
      "count": 960,
      "max": [
        1.0,
        1.0,
        1.0
      ],
      "min": [
        -1.0,
        -1.0,
        -1.0
      ],
      "type": "VEC3"
    },
    {
      "bufferView": 1,
      "byteOffset": 99888,
      "componentType": 5126,
      "count": 960,
      "max": [
        0.7020008563995361,
        0.9898306131362915
      ],
      "min": [
        0.05161029472947121,
        0.4806762933731079
      ],
      "type": "VEC2"
    },
    {
      "bufferView": 0,
      "byteOffset": 127872,
      "componentType": 5125,
      "count": 2652,
      "type": "SCALAR"
    },
    {
      "bufferView": 2,
      "byteOffset": 322704,
      "componentType": 5126,
      "count": 1224,
      "max": [
        0.10542090982198715,
        0.337295264005661,
        0.3372952342033386
      ],
      "min": [
        -0.10542092472314835,
        -0.3372952342033386,
        -0.3372952342033386
      ],
      "type": "VEC3"
    },
    {
      "bufferView": 2,
      "byteOffset": 337392,
      "componentType": 5126,
      "count": 1224,
      "max": [
        1.0,
        1.0,
        1.0
      ],
      "min": [
        -1.0,
        -1.0,
        -1.0
      ],
      "type": "VEC3"
    },
    {
      "bufferView": 1,
      "byteOffset": 107568,
      "componentType": 5126,
      "count": 1224,
      "max": [
        0.7020008563995361,
        0.9898306131362915
      ],
      "min": [
        0.05161029472947121,
        0.4806762933731079
      ],
      "type": "VEC2"
    },
    {
      "bufferView": 0,
      "byteOffset": 138480,
      "componentType": 5125,
      "count": 3252,
      "type": "SCALAR"
    },
    {
      "bufferView": 2,
      "byteOffset": 352080,
      "componentType": 5126,
      "count": 960,
      "max": [
        0.10249999910593033,
        0.33429527282714844,
        0.33429524302482605
      ],
      "min": [
        -0.10250001400709152,
        -0.33429524302482605,
        -0.33429524302482605
      ],
      "type": "VEC3"
    },
    {
      "bufferView": 2,
      "byteOffset": 363600,
      "componentType": 5126,
      "count": 960,
      "max": [
        1.0,
        1.0,
        1.0
      ],
      "min": [
        -1.0,
        -1.0,
        -1.0
      ],
      "type": "VEC3"
    },
    {
      "bufferView": 1,
      "byteOffset": 117360,
      "componentType": 5126,
      "count": 960,
      "max": [
        0.7020008563995361,
        0.9898306131362915
      ],
      "min": [
        0.05161029472947121,
        0.4806762933731079
      ],
      "type": "VEC2"
    },
    {
      "bufferView": 0,
      "byteOffset": 151488,
      "componentType": 5125,
      "count": 2652,
      "type": "SCALAR"
    },
    {
      "bufferView": 2,
      "byteOffset": 375120,
      "componentType": 5126,
      "count": 1224,
      "max": [
        0.10542090982198715,
        0.337295264005661,
        0.3372952342033386
      ],
      "min": [
        -0.10542092472314835,
        -0.3372952342033386,
        -0.3372952342033386
      ],
      "type": "VEC3"
    },
    {
      "bufferView": 2,
      "byteOffset": 389808,
      "componentType": 5126,
      "count": 1224,
      "max": [
        1.0,
        1.0,
        1.0
      ],
      "min": [
        -1.0,
        -1.0,
        -1.0
      ],
      "type": "VEC3"
    },
    {
      "bufferView": 1,
      "byteOffset": 125040,
      "componentType": 5126,
      "count": 1224,
      "max": [
        0.7020008563995361,
        0.9898306131362915
      ],
      "min": [
        0.05161029472947121,
        0.4806762933731079
      ],
      "type": "VEC2"
    },
    {
      "bufferView": 0,
      "byteOffset": 162096,
      "componentType": 5125,
      "count": 3252,
      "type": "SCALAR"
    }
  ],
  "asset": {
    "extras": {
      "author": "Bandit.545 (https://sketchfab.com/Bandit.545)",
      "license": "CC-BY-4.0 (http://creativecommons.org/licenses/by/4.0/)",
      "source": "https://sketchfab.com/3d-models/bmw-e9-low-poly-and-stylized-b801202a919f40efabd6f816ab5f5fa9",
      "title": "BMW E9 (Low poly and Stylized)"
    },
    "generator": "Sketchfab-14.71.0",
    "version": "2.0"
  },
  "bufferViews": [
    {
      "buffer": 0,
      "byteLength": 175104,
      "name": "floatBufferViews",
      "target": 34963
    },
    {
      "buffer": 0,
      "byteLength": 134832,
      "byteOffset": 175104,
      "byteStride": 8,
      "name": "floatBufferViews",
      "target": 34962
    },
    {
      "buffer": 0,
      "byteLength": 404496,
      "byteOffset": 309936,
      "byteStride": 12,
      "name": "floatBufferViews",
      "target": 34962
    }
  ],
  "buffers": [
    {
      "byteLength": 714432,
      "uri": "scene.bin"
    }
  ],
  "extensionsUsed": [
    "KHR_materials_specular"
  ],
  "images": [
    {
      "uri": "textures/color_emissive.png"
    },
    {
      "uri": "textures/other_stuff_emissive.png"
    }
  ],
  "materials": [
    {
      "emissiveFactor": [
        1.0,
        1.0,
        1.0
      ],
      "emissiveTexture": {
        "index": 0
      },
      "extensions": {
        "KHR_materials_specular": {
          "specularColorFactor": [
            1.0,
            1.0,
            1.0
          ],
          "specularFactor": 0.0
        }
      },
      "name": "color",
      "pbrMetallicRoughness": {
        "baseColorFactor": [
          0.0,
          0.0,
          0.0,
          1.0
        ]
      }
    },
    {
      "emissiveFactor": [
        1.0,
        1.0,
        1.0
      ],
      "emissiveTexture": {
        "index": 1
      },
      "extensions": {
        "KHR_materials_specular": {
          "specularColorFactor": [
            1.0,
            1.0,
            1.0
          ],
          "specularFactor": 0.0
        }
      },
      "name": "other_stuff",
      "pbrMetallicRoughness": {
        "baseColorFactor": [
          0.0,
          0.0,
          0.0,
          1.0
        ]
      }
    },
    {
      "emissiveFactor": [
        0.002,
        0.002,
        0.002
      ],
      "extensions": {
        "KHR_materials_specular": {
          "specularColorFactor": [
            1.0,
            1.0,
            1.0
          ],
          "specularFactor": 0.0
        }
      },
      "name": "outline",
      "pbrMetallicRoughness": {
        "baseColorFactor": [
          0.0,
          0.0,
          0.0,
          1.0
        ]
      }
    }
  ],
  "meshes": [
    {
      "name": "Object_0",
      "primitives": [
        {
          "attributes": {
            "NORMAL": 1,
            "POSITION": 0,
            "TEXCOORD_0": 2
          },
          "indices": 3,
          "material": 0,
          "mode": 4
        }
      ]
    },
    {
      "name": "Object_1",
      "primitives": [
        {
          "attributes": {
            "NORMAL": 5,
            "POSITION": 4,
            "TEXCOORD_0": 6
          },
          "indices": 7,
          "material": 1,
          "mode": 4
        }
      ]
    },
    {
      "name": "Object_2",
      "primitives": [
        {
          "attributes": {
            "NORMAL": 9,
            "POSITION": 8,
            "TEXCOORD_0": 10
          },
          "indices": 11,
          "material": 2,
          "mode": 4
        }
      ]
    },
    {
      "name": "Object_3",
      "primitives": [
        {
          "attributes": {
            "NORMAL": 13,
            "POSITION": 12,
            "TEXCOORD_0": 14
          },
          "indices": 15,
          "material": 1,
          "mode": 4
        }
      ]
    },
    {
      "name": "Object_4",
      "primitives": [
        {
          "attributes": {
            "NORMAL": 17,
            "POSITION": 16,
            "TEXCOORD_0": 18
          },
          "indices": 19,
          "material": 2,
          "mode": 4
        }
      ]
    },
    {
      "name": "Object_5",
      "primitives": [
        {
          "attributes": {
            "NORMAL": 21,
            "POSITION": 20,
            "TEXCOORD_0": 22
          },
          "indices": 23,
          "material": 1,
          "mode": 4
        }
      ]
    },
    {
      "name": "Object_6",
      "primitives": [
        {
          "attributes": {
            "NORMAL": 25,
            "POSITION": 24,
            "TEXCOORD_0": 26
          },
          "indices": 27,
          "material": 2,
          "mode": 4
        }
      ]
    },
    {
      "name": "Object_7",
      "primitives": [
        {
          "attributes": {
            "NORMAL": 29,
            "POSITION": 28,
            "TEXCOORD_0": 30
          },
          "indices": 31,
          "material": 1,
          "mode": 4
        }
      ]
    },
    {
      "name": "Object_8",
      "primitives": [
        {
          "attributes": {
            "NORMAL": 33,
            "POSITION": 32,
            "TEXCOORD_0": 34
          },
          "indices": 35,
          "material": 2,
          "mode": 4
        }
      ]
    },
    {
      "name": "Object_9",
      "primitives": [
        {
          "attributes": {
            "NORMAL": 37,
            "POSITION": 36,
            "TEXCOORD_0": 38
          },
          "indices": 39,
          "material": 1,
          "mode": 4
        }
      ]
    },
    {
      "name": "Object_10",
      "primitives": [
        {
          "attributes": {
            "NORMAL": 41,
            "POSITION": 40,
            "TEXCOORD_0": 42
          },
          "indices": 43,
          "material": 2,
          "mode": 4
        }
      ]
    }
  ],
  "nodes": [
    {
      "children": [
        1
      ],
      "matrix": [
        1.0,
        0.0,
        0.0,
        0.0,
        0.0,
        2.220446049250313e-16,
        -1.0,
        0.0,
        0.0,
        1.0,
        2.220446049250313e-16,
        0.0,
        0.0,
        0.0,
        0.0,
        1.0
      ],
      "name": "Sketchfab_model"
    },
    {
      "children": [
        2
      ],
      "name": "root"
    },
    {
      "children": [
        3,
        7,
        10,
        13,
        17
      ],
      "matrix": [
        1.0,
        0.0,
        0.0,
        0.0,
        0.0,
        2.220446049250313e-16,
        1.0,
        0.0,
        0.0,
        -1.0,
        2.220446049250313e-16,
        0.0,
        0.0,
        0.0,
        0.0,
        1.0
      ],
      "name": "GLTF_SceneRootNode"
    },
    {
      "children": [
        4,
        5,
        6
      ],
      "name": "lp_bmwe9_body_0"
    },
    {
      "mesh": 0,
      "name": "Object_4"
    },
    {
      "mesh": 1,
      "name": "Object_5"
    },
    {
      "mesh": 2,
      "name": "Object_6"
    },
    {
      "children": [
        8,
        9
      ],
      "matrix": [
        1.0,
        0.0,
        0.0,
        0.0,
        0.0,
        1.0,
        0.0,
        0.0,
        0.0,
        0.0,
        1.0,
        0.0,
        0.7366110682487488,
        0.3302977979183197,
        -1.294180989265442,
        1.0
      ],
      "name": "lp_bmwe9_w_2_1"
    },
    {
      "mesh": 3,
      "name": "Object_8"
    },
    {
      "mesh": 4,
      "name": "Object_9"
    },
    {
      "children": [
        11,
        12
      ],
      "matrix": [
        -1.0,
        -0.0,
        0.0,
        -0.0,
        0.0,
        1.0,
        0.0,
        0.0,
        0.0,
        0.0,
        1.0,
        0.0,
        -0.7366110682487488,
        0.3302977979183197,
        -1.294180989265442,
        1.0
      ],
      "name": "lp_bmwe9_w_3_2"
    },
    {
      "mesh": 5,
      "name": "Object_11"
    },
    {
      "mesh": 6,
      "name": "Object_12"
    },
    {
      "children": [
        14
      ],
      "matrix": [
        0.8191520482471555,
        0.0,
        -0.5735764306982024,
        0.0,
        0.0,
        1.0,
        0.0,
        0.0,
        0.5735764306982024,
        0.0,
        0.8191520482471555,
        0.0,
        0.7366110682487488,
        0.3302977979183197,
        1.361282467842102,
        1.0
      ],
      "name": "Empty.004_4"
    },
    {
      "children": [
        15,
        16
      ],
      "name": "lp_bmwe9_w_0_3"
    },
    {
      "mesh": 7,
      "name": "Object_15"
    },
    {
      "mesh": 8,
      "name": "Object_16"
    },
    {
      "children": [
        18
      ],
      "matrix": [
        0.8090169938143481,
        0.0,
        -0.5877852530640718,
        0.0,
        0.0,
        1.0,
        0.0,
        0.0,
        0.5877852530640718,
        0.0,
        0.8090169938143481,
        0.0,
        -0.7366110682487488,
        0.3302977979183197,
        1.361282467842102,
        1.0
      ],
      "name": "Empty.005_6"
    },
    {
      "children": [
        19,
        20
      ],
      "matrix": [
        -1.0,
        -0.0,
        0.0,
        -0.0,
        0.0,
        0.999999999999996,
        8.742277657347569e-08,
        -0.0,
        -0.0,
        -8.742277657347569e-08,
        0.999999999999996,
        -0.0,
        0.0,
        0.0,
        0.0,
        1.0
      ],
      "name": "lp_bmwe9_w_1_5"
    },
    {
      "mesh": 9,
      "name": "Object_19"
    },
    {
      "mesh": 10,
      "name": "Object_20"
    }
  ],
  "samplers": [
    {
      "magFilter": 9729,
      "minFilter": 9987,
      "wrapS": 10497,
      "wrapT": 10497
    }
  ],
  "scene": 0,
  "scenes": [
    {
      "name": "Sketchfab_Scene",
      "nodes": [
        0
      ]
    }
  ],
  "textures": [
    {
      "sampler": 0,
      "source": 0
    },
    {
      "sampler": 0,
      "source": 1
    }
  ]
}
