{
  "accessors": [
    {
      "bufferView": 2,
      "componentType": 5126,
      "count": 9654,
      "max": [
        0.6195650100708008,
        1.0441099405288696,
        1.2429929971694946
      ],
      "min": [
        -0.21116699278354645,
        -1.0410540103912354,
        -0.020450999960303307
      ],
      "type": "VEC3"
    },
    {
      "bufferView": 2,
      "byteOffset": 115848,
      "componentType": 5126,
      "count": 9654,
      "max": [
        0.999964714050293,
        1.0,
        0.9998655319213867
      ],
      "min": [
        -0.999873161315918,
        -1.0,
        -0.999893069267273
      ],
      "type": "VEC3"
    },
    {
      "bufferView": 1,
      "componentType": 5126,
      "count": 9654,
      "max": [
        0.9857590198516846,
        0.9684510231018066
      ],
      "min": [
        0.031293999403715134,
        0.09792900085449219
      ],
      "type": "VEC2"
    },
    {
      "bufferView": 0,
      "componentType": 5125,
      "count": 21492,
      "type": "SCALAR"
    },
    {
      "bufferView": 2,
      "byteOffset": 231696,
      "componentType": 5126,
      "count": 592,
      "max": [
        0.2218409925699234,
        1.0593260526657104,
        0.6172419786453247
      ],
      "min": [
        -0.09366799890995026,
        0.41660401225090027,
        -0.014235000126063824
      ],
      "type": "VEC3"
    },
    {
      "bufferView": 2,
      "byteOffset": 238800,
      "componentType": 5126,
      "count": 592,
      "max": [
        0.9981864094734192,
        1.0,
        0.9973317980766296
      ],
      "min": [
        -0.9999825954437256,
        -1.0,
        -0.9973317980766296
      ],
      "type": "VEC3"
    },
    {
      "bufferView": 1,
      "byteOffset": 77232,
      "componentType": 5126,
      "count": 592,
      "max": [
        0.9708269834518433,
        0.7858629822731018
      ],
      "min": [
        0.03391300141811371,
        0.4353939890861511
      ],
      "type": "VEC2"
    },
    {
      "bufferView": 0,
      "byteOffset": 85968,
      "componentType": 5125,
      "count": 1812,
      "type": "SCALAR"
    },
    {
      "bufferView": 2,
      "byteOffset": 245904,
      "componentType": 5126,
      "count": 8939,
      "max": [
        0.6146829724311829,
        1.054326057434082,
        1.239056944847107
      ],
      "min": [
        -0.20764000713825226,
        -1.0363240242004395,
        -0.015475999563932419
      ],
      "type": "VEC3"
    },
    {
      "bufferView": 2,
      "byteOffset": 353172,
      "componentType": 5126,
      "count": 8939,
      "max": [
        0.9997019171714783,
        1.0,
        0.9998761415481567
      ],
      "min": [
        -0.9990262389183044,
        -1.0,
        -0.999964714050293
      ],
      "type": "VEC3"
    },
    {
      "bufferView": 1,
      "byteOffset": 81968,
      "componentType": 5126,
      "count": 8939,
      "max": [
        0.9857590198516846,
        0.9684510231018066
      ],
      "min": [
        0.031293999403715134,
        0.09792900085449219
      ],
      "type": "VEC2"
    },
    {
      "bufferView": 0,
      "byteOffset": 93216,
      "componentType": 5125,
      "count": 20688,
      "type": "SCALAR"
    }
  ],
  "asset": {
    "extras": {
      "author": "Bandit.545 (https://sketchfab.com/Bandit.545)",
      "license": "CC-BY-4.0 (http://creativecommons.org/licenses/by/4.0/)",
      "source": "https://sketchfab.com/3d-models/ktm-1290-super-duke-low-poly-and-stylized-f6f6dd2cfe5a4c50aa7863aed8d74a47",
      "title": "KTM 1290 Super Duke (Low Poly and Stylized)"
    },
    "generator": "Sketchfab-15.5.0",
    "version": "2.0"
  },
  "bufferViews": [
    {
      "buffer": 0,
      "byteLength": 175968,
      "name": "floatBufferViews",
      "target": 34963
    },
    {
      "buffer": 0,
      "byteLength": 153480,
      "byteOffset": 175968,
      "byteStride": 8,
      "name": "floatBufferViews",
      "target": 34962
    },
    {
      "buffer": 0,
      "byteLength": 460440,
      "byteOffset": 329448,
      "byteStride": 12,
      "name": "floatBufferViews",
      "target": 34962
    }
  ],
  "buffers": [
    {
      "byteLength": 789888,
      "uri": "scene.bin"
    }
  ],
  "extensionsUsed": [
    "KHR_materials_specular"
  ],
  "images": [
    {
      "uri": "textures/Toon_SuperDuke_baseColor.png"
    }
  ],
  "materials": [
    {
      "extensions": {
        "KHR_materials_specular": {
          "specularColorFactor": [
            1.0,
            1.0,
            1.0
          ],
          "specularFactor": 0.0
        }
      },
      "name": "Outline",
      "pbrMetallicRoughness": {
        "baseColorFactor": [
          0.0,
          0.0,
          0.0,
          1.0
        ],
        "metallicFactor": 0.0
      }
    },
    {
      "doubleSided": true,
      "emissiveFactor": [
        1.0,
        1.0,
        1.0
      ],
      "emissiveTexture": {
        "index": 0
      },
      "extensions": {
        "KHR_materials_specular": {
          "specularColorFactor": [
            1.0,
            1.0,
            1.0
          ],
          "specularFactor": 0.0
        }
      },
      "name": "Toon_SuperDuke",
      "pbrMetallicRoughness": {
        "baseColorFactor": [
          0.0,
          0.0,
          0.0,
          1.0
        ],
        "baseColorTexture": {
          "index": 0
        },
        "metallicFactor": 0.0
      }
    }
  ],
  "meshes": [
    {
      "name": "Object_0",
      "primitives": [
        {
          "attributes": {
            "NORMAL": 1,
            "POSITION": 0,
            "TEXCOORD_0": 2
          },
          "indices": 3,
          "material": 0,
          "mode": 4
        }
      ]
    },
    {
      "name": "Object_1",
      "primitives": [
        {
          "attributes": {
            "NORMAL": 5,
            "POSITION": 4,
            "TEXCOORD_0": 6
          },
          "indices": 7,
          "material": 0,
          "mode": 4
        }
      ]
    },
    {
      "name": "Object_2",
      "primitives": [
        {
          "attributes": {
            "NORMAL": 9,
            "POSITION": 8,
            "TEXCOORD_0": 10
          },
          "indices": 11,
          "material": 1,
          "mode": 4
        }
      ]
    }
  ],
  "nodes": [
    {
      "children": [
        1
      ],
      "matrix": [
        1.0,
        0.0,
        0.0,
        0.0,
        0.0,
        2.220446049250313e-16,
        -1.0,
        0.0,
        0.0,
        1.0,
        2.220446049250313e-16,
        0.0,
        0.0,
        0.0,
        0.0,
        1.0
      ],
      "name": "Sketchfab_model"
    },
    {
      "children": [
        2,
        3,
        4
      ],
      "name": "Toon_SuperDuke_Export.obj.cleaner.materialmerger.gles"
    },
    {
      "mesh": 0,
      "name": "Object_2"
    },
    {
      "mesh": 1,
      "name": "Object_3"
    },
    {
      "mesh": 2,
      "name": "Object_4"
    }
  ],
  "samplers": [
    {
      "magFilter": 9729,
      "minFilter": 9987,
      "wrapS": 10497,
      "wrapT": 10497
    }
  ],
  "scene": 0,
  "scenes": [
    {
      "name": "Sketchfab_Scene",
      "nodes": [
        0
      ]
    }
  ],
  "textures": [
    {
      "sampler": 0,
      "source": 0
    }
  ]
}
